<?xml version="1.0" encoding="UTF-8"?>
<svg id="Calque_2" data-name="Calque 2" xmlns="http://www.w3.org/2000/svg" xmlns:xlink="http://www.w3.org/1999/xlink" viewBox="0 0 351.46 408.66">
  <defs>
    <style>
      .cls-1 {
        fill: url(#Dégradé_sans_nom_2);
      }

      .cls-2 {
        fill: #a6a6a6;
      }

      .cls-3 {
        fill: #fff;
      }

      .cls-4 {
        fill: #c35500;
      }
    </style>
    <linearGradient id="Dégradé_sans_nom_2" data-name="Dégradé sans nom 2" x1="207.64" y1="288.36" x2="168.14" y2="151.41" gradientUnits="userSpaceOnUse">
      <stop offset="0" stop-color="#fff"/>
      <stop offset=".14" stop-color="#fbfdfe"/>
      <stop offset=".27" stop-color="#f0fafd"/>
      <stop offset=".39" stop-color="#def3fb"/>
      <stop offset=".51" stop-color="#c5eaf9"/>
      <stop offset=".63" stop-color="#a4dff6"/>
      <stop offset=".74" stop-color="#7bd1f2"/>
      <stop offset=".85" stop-color="#4bc1ee"/>
      <stop offset=".96" stop-color="#15aee9"/>
      <stop offset="1" stop-color="#00a7e7"/>
    </linearGradient>
  </defs>
  <path class="cls-1" d="M166.02,408.66c-2.81,0-5.36-.51-7.92-1.53C151.71,404.32,0,338.93,0,204.33V61.3C0,52.1,6.13,44.19,14.81,41.63L160.4.77c3.58-1.02,7.41-1.02,10.98,0l145.58,40.87c8.94,2.55,14.81,10.47,14.81,19.67v143.03c0,134.6-151.71,199.99-158.1,202.8-2.55,1.02-5.11,1.53-7.92,1.53h.26Z"/>
  <g>
    <ellipse class="cls-2" cx="169.95" cy="354.72" rx="27.51" ry="8.75"/>
    <ellipse class="cls-2" cx="196.78" cy="343.28" rx="10.58" ry="3.1"/>
    <ellipse class="cls-2" cx="212.87" cy="353.89" rx="12.5" ry="4.17"/>
    <ellipse class="cls-2" cx="204.33" cy="366.18" rx="11.88" ry="3.96"/>
    <ellipse class="cls-2" cx="180.17" cy="369.21" rx="8.95" ry="3.43"/>
  </g>
  <g>
    <ellipse class="cls-2" cx="101.83" cy="319.42" rx="24.8" ry="7.89"/>
    <ellipse class="cls-2" cx="126.02" cy="309.11" rx="9.54" ry="2.8"/>
    <ellipse class="cls-2" cx="140.53" cy="318.67" rx="11.27" ry="3.76"/>
    <ellipse class="cls-2" cx="132.82" cy="329.75" rx="10.71" ry="3.57"/>
    <ellipse class="cls-2" cx="111.04" cy="332.49" rx="8.07" ry="3.09"/>
  </g>
  <g>
    <path class="cls-3" d="M286.99,230.9c-5.46-24.98-1.31-63.52-1.31-63.52,0,0-139.36-123.83-149.46-134.78-3.43-3.72-9.78-11.06-18.74-19.78L14.87,41.63C6.18,44.19.05,52.1.05,61.3v136.14c1.2.25,2.4.5,3.59.77,93.66,21.33,128.53,47,148.95,60.58,20.42,13.58,61.25,64.84,61.25,64.84,0,0,37.28,5.7,63.95,5.96,26.67.26,62.28-29.79,62.28-29.79,0,0-47.63-43.92-53.09-68.9Z"/>
    <path class="cls-4" d="M293.09,237.03s-6.55,16.63-49.2,8.76c-42.64-7.86-66.2-15.62-91.94,15.91,0,0-56.98-47.01-76.57-51.62l131.24-113.46,85.76,72.84s-17.17,38.65.71,67.57Z"/>
    <path d="M310.69,269.07s-17.82,15.63-19.63,19.67c-2.14,4.8-5.87,23.18,17.25,29.78l27.44-15.98-25.06-33.48Z"/>
    <polygon points="236.34 182.63 287.52 230.34 285.62 197.69 236.34 182.63"/>
    <path d="M297.36,167.36S202.23,88.22,154.19,34.65c-8.4-9.37-16.74-17.65-25.05-25.1l-21.65,6.08c6.27,5.4,12.26,11.29,17.9,17.82,47,54.47,161.29,139.22,161.29,139.22-16.11,77.47,35.98,123.09,35.98,123.09-33.13,49.19-102.72,20.92-102.72,20.92C155.51,237.23,74.69,203.65.05,192.24v12.09c0,3.78.14,7.5.37,11.17,70.51,10.93,147.04,42.62,213.31,115.35,0,0,93.86,37.1,137.73-33.89,0,0-70.22-52.14-54.11-129.61Z"/>
    <path d="M232.57,66.36s-81.64-38.02-134.98-9.79c0,0-46.36,25.16-68.58,119.81,0,0,11.77,52.59,59.45,92.94,0,0,53.42-75.66,112.38-70.84,0,0,4.43-55.32,57.4-63.94,0,0,7.5-45.54-25.66-68.18Z"/>
    <path class="cls-4" d="M189.53,186.2c-62.31,8.33-101.32,54.64-101.32,54.64-42.6-34.14-45.31-73.59-45.31-73.59,22.4-60.53,68.37-97.24,68.37-97.24,47.32-23.49,109.51,7.68,109.51,7.68,21.16,10.1,19.83,45.72,19.83,45.72-47.07,7-51.08,62.78-51.08,62.78Z"/>
  </g>
  <g>
    <path d="M166.02,408.66s-.09,0-.13,0c-.04,0-.08,0-.13,0h.26Z"/>
    <path d="M316.97,41.63L171.38.77c-1.79-.51-3.64-.77-5.49-.77s-3.7.26-5.49.77L14.81,41.63C6.13,44.19,0,52.1,0,61.3v143.03c0,134.6,151.71,199.99,158.1,202.8,2.52,1.01,5.03,1.52,7.79,1.53,2.76-.02,5.27-.53,7.79-1.53,3.25-1.43,44.02-19.03,83.35-53.66-6.37-.43-12.82-1.15-18.97-2.31-31.7,25.56-62.37,39.8-69.75,43.04-.83.32-1.55.45-2.42.46-.87-.01-1.59-.15-2.42-.46-15.6-6.85-149.47-69.19-149.47-189.87V61.3c0-2.88,1.89-5.37,4.71-6.23L164.24,14.22c.53-.15,1.08-.23,1.65-.23s1.12.08,1.71.25l145.52,40.85c2.88.82,4.67,3.2,4.67,6.21v143.03c0,10.06-.97,20.01-2.83,29.8,2.44,5.23,5.77,11.38,10.16,17.7,4.21-14.75,6.65-30.56,6.65-47.5V61.3c0-9.19-5.87-17.11-14.81-19.67Z"/>
  </g>
</svg>