<?xml version="1.0" encoding="UTF-8"?>
<svg id="Calque_2" data-name="Calque 2" xmlns="http://www.w3.org/2000/svg" xmlns:xlink="http://www.w3.org/1999/xlink" viewBox="0 0 514.5 476.5488.14">
  <defs>
    <style>
      .cls-1 {
        fill: url(#Dégradé_sans_nom_2);
      }

      .cls-2 {
        fill: #a6a6a6;
      }

      .cls-3 {
        fill: #fff;
      }

      .cls-4 {
        fill: #c35500;
      }
    </style>

  </defs>
  <rect x="0" y="0" width="514.5" height="88.14" rx="44.07" ry="44.07"/>

  <g>
    <path transform="matrix(1 0 0 1 0 -388.41)" class="cls-3" d="M38.82,416.6h16.65c9.34,0,13.54,4.8,13.54,11.8,0,6.33-4.04,12.18-13.11,12.18h-8.44v11.4h-8.64v-35.39ZM54.71,433.5c3.82,0,5.6-2.08,5.6-5s-1.96-4.72-5.8-4.72h-7.06v9.72h7.26Z"/>
    <path transform="matrix(1 0 0 1 0 -388.41)" class="cls-3" d="M72.84,424.18h8.04v5.98h.1c.83-4.12,2.71-6.5,6.51-6.5,1.08,0,1.96.2,2.54.43v7.54c-.75-.23-1.91-.38-3.01-.38-4.42,0-5.93,2.76-5.93,7.26v13.49h-8.24v-27.8Z"/>
    <path transform="matrix(1 0 0 1 0 -388.41)" class="cls-3" d="M91.37,438.07c0-8.99,6.15-14.42,14.64-14.42s14.67,5.42,14.67,14.42-6.15,14.42-14.67,14.42-14.64-5.4-14.64-14.42ZM106.02,445.98c3.72,0,6.03-2.91,6.03-7.91s-2.31-7.89-6.03-7.89-6.03,2.86-6.03,7.89,2.31,7.91,6.03,7.91Z"/>
    <path transform="matrix(1 0 0 1 0 -388.41)" class="cls-3" d="M120.55,462.71v-6.3c.58.13,1.28.23,1.93.23,2.06,0,2.74-.8,2.74-3.11v-29.34h8.24v30.49c0,5.55-1.98,8.51-8.71,8.51-1.48,0-2.94-.15-4.19-.48ZM129.32,412.48c2.69,0,4.62,1.81,4.62,4.47s-1.93,4.45-4.62,4.45-4.57-1.76-4.57-4.45,1.91-4.47,4.57-4.47Z"/>
    <path transform="matrix(1 0 0 1 0 -388.41)" class="cls-3" d="M138.01,438.07c0-9.64,6.4-14.42,14.42-14.42,9.59,0,13.06,6.41,13.06,13.71,0,.85-.05,1.78-.13,2.71h-18.64c.55,4.47,2.96,6.28,6.88,6.28,2.89,0,4.77-.88,6.46-2.86l4.57,4.57c-2.51,2.84-5.85,4.42-11.63,4.42-9.42,0-14.99-5.2-14.99-14.42ZM157.39,435.66c-.28-4.37-2.16-6.05-5.1-6.05s-5,1.66-5.55,6.05h10.65Z"/>
    <path transform="matrix(1 0 0 1 0 -388.41)" class="cls-3" d="M168.14,438.07c0-9.09,5.78-14.42,14.59-14.42,5.5,0,9.12,2.03,11.38,4.82l-4.97,4.72c-1.53-2.01-3.42-3.01-5.95-3.01-3.92,0-6.43,2.56-6.43,7.89s2.51,7.91,6.43,7.91c2.54,0,4.42-1.03,5.95-3.04l4.97,4.72c-2.29,2.76-5.88,4.82-11.38,4.82-8.82,0-14.59-5.32-14.59-14.42Z"/>
    <path transform="matrix(1 0 0 1 0 -388.41)" class="cls-3" d="M198.8,444.1v-13.84h-3.99v-3.49l10.32-10.3h1.88v7.71h5.83v6.08h-5.83v12.31c0,2.41.8,3.01,2.91,3.01,1.08,0,2.06-.15,2.91-.4v6.81c-1.21.3-3.06.48-4.9.48-6.38,0-9.14-2.19-9.14-8.36Z"/>
    <path transform="matrix(1 0 0 1 0 -388.41)" class="cls-3" d="M229.54,416.6h24.96v7.33h-16.33v7.71h15.77v7.31h-15.77v13.04h-8.64v-35.39Z"/>
    <path transform="matrix(1 0 0 1 0 -388.41)" class="cls-3" d="M257.49,438.07c0-8.99,6.15-14.42,14.64-14.42s14.67,5.42,14.67,14.42-6.15,14.42-14.67,14.42-14.64-5.4-14.64-14.42ZM272.13,445.98c3.72,0,6.03-2.91,6.03-7.91s-2.31-7.89-6.03-7.89-6.03,2.86-6.03,7.89,2.31,7.91,6.03,7.91Z"/>
    <path transform="matrix(1 0 0 1 0 -388.41)" class="cls-3" d="M301.36,442.64l-5.4,9.34h-9.04l9.19-13.96-8.74-13.84h9.24l5,9.09,4.97-9.09h8.99l-8.74,13.84,9.22,13.96h-9.29l-5.4-9.34Z"/>
    <path transform="matrix(1 0 0 1 0 -388.41)" class="cls-3" d="M319.39,414.39h8.24v15.7h.15c1.16-3.59,3.97-6.43,8.99-6.43,6.05,0,8.59,4.17,8.59,10.2v18.13h-8.21v-15.92c0-3.42-1.11-5.45-4.35-5.45s-5.17,2.21-5.17,6.35v15.02h-8.24v-37.6Z"/>
    <path transform="matrix(1 0 0 1 0 -388.41)" class="cls-3" d="M349.7,438.07c0-8.99,6.15-14.42,14.64-14.42s14.67,5.42,14.67,14.42-6.15,14.42-14.67,14.42-14.64-5.4-14.64-14.42ZM364.34,445.98c3.72,0,6.03-2.91,6.03-7.91s-2.31-7.89-6.03-7.89-6.03,2.86-6.03,7.89,2.31,7.91,6.03,7.91Z"/>
    <path transform="matrix(1 0 0 1 0 -388.41)" class="cls-3" d="M383.32,442.32v-18.13h8.26v15.92c0,3.42,1.05,5.45,4.29,5.45s5.22-2.26,5.22-6.38v-14.99h8.21v27.8h-8.01v-5.93h-.18c-1.43,3.52-4.12,6.43-9.22,6.43-6.03,0-8.59-4.19-8.59-10.17Z"/>
    <path transform="matrix(1 0 0 1 0 -388.41)" class="cls-3" d="M415.64,424.18h8.04v5.9h.12c1.43-3.49,4.17-6.43,9.22-6.43,6.05,0,8.59,4.17,8.59,10.2v18.13h-8.21v-15.92c0-3.42-1.11-5.45-4.35-5.45s-5.17,2.21-5.17,6.35v15.02h-8.24v-27.8Z"/>
    <path transform="matrix(1 0 0 1 0 -388.41)" class="cls-3" d="M446.07,438.07c0-8.79,3.99-14.42,11.03-14.42,5.22,0,8.21,2.91,9.39,5.98h.18v-15.25h8.21v37.6h-8.01v-5.55h-.15c-1.41,3.14-3.84,6.05-9.29,6.05-6.76,0-11.35-5.07-11.35-14.42ZM460.74,445.98c3.69,0,6.03-2.91,6.03-7.91s-2.33-7.89-6.03-7.89-6.03,2.86-6.03,7.89,2.31,7.91,6.03,7.91Z"/>
  </g>

</svg>